/* XPM */
static char *PngItem_27820321675603278[] = {
/* columns rows colors chars-per-pixel */
"35 49 210 2 ",
"   c None",
".  c #0C0D0B",
"X  c #060C07",
"o  c #0E120D",
"O  c #0E180E",
"+  c #10140E",
"@  c #10180F",
"#  c #0E1B10",
"$  c #141413",
"%  c #141D12",
"&  c #181A16",
"*  c #1C1D1B",
"=  c #161A1A",
"-  c #10220E",
";  c #152213",
":  c #1B2515",
">  c #1C2A15",
",  c #1D2B1B",
"<  c #172619",
"1  c #1F3316",
"2  c #212E14",
"3  c #222C1C",
"4  c #202717",
"5  c #233216",
"6  c #23341D",
"7  c #2A341E",
"8  c #25391D",
"9  c #2C3C1B",
"0  c #323E1B",
"q  c #1F2422",
"w  c #222322",
"e  c #242A23",
"r  c #282E21",
"t  c #2A2D2C",
"y  c #253122",
"u  c #2A3323",
"i  c #263920",
"p  c #2A3A23",
"a  c #2C342C",
"s  c #323A2F",
"d  c #373A20",
"f  c #202D30",
"g  c #28373B",
"h  c #353935",
"j  c #383E36",
"k  c #303C3F",
"l  c #513F29",
"z  c #403F3E",
"x  c #493A22",
"c  c #6F2E22",
"v  c #763527",
"b  c #2D431D",
"n  c #32421C",
"m  c #3C461D",
"M  c #36481E",
"N  c #3D4D1E",
"B  c #2C4325",
"V  c #2E4628",
"C  c #344425",
"Z  c #324B29",
"A  c #3B4B2B",
"S  c #3A4627",
"D  c #36522C",
"F  c #3E522C",
"G  c #3C592F",
"H  c #3F4734",
"J  c #3D4D32",
"K  c #3D453B",
"L  c #3E5C32",
"P  c #3A5730",
"I  c #46511F",
"U  c #434C2C",
"Y  c #404D20",
"T  c #59482B",
"R  c #445121",
"E  c #4C5522",
"W  c #43542D",
"Q  c #47592F",
"!  c #5A5E2A",
"~  c #41493E",
"^  c #465B32",
"/  c #48563A",
"(  c #575838",
")  c #7A442D",
"_  c #7E4C31",
"`  c #64543C",
"'  c #4B622F",
"]  c #436336",
"[  c #4F6434",
"{  c #466739",
"}  c #476B3A",
"|  c #496C3A",
" . c #4D6B39",
".. c #52633C",
"X. c #546939",
"o. c #576837",
"O. c #4D733C",
"+. c #5C733D",
"@. c #537A3F",
"#. c #646E3E",
"$. c #6A6439",
"%. c #78733E",
"&. c #68783E",
"*. c #303C40",
"=. c #2D3E43",
"-. c #3C4244",
";. c #334043",
":. c #3B515B",
">. c #384C56",
",. c #3E5A65",
"<. c #484A49",
"1. c #4C5543",
"2. c #4F5D4B",
"3. c #52594D",
"4. c #485358",
"5. c #555C51",
"6. c #535756",
"7. c #474E51",
"8. c #566248",
"9. c #517040",
"0. c #5C6759",
"q. c #666548",
"w. c #617A41",
"e. c #677845",
"r. c #696A5A",
"t. c #77724C",
"y. c #545E66",
"u. c #5B676C",
"i. c #4B6976",
"p. c #536C76",
"a. c #686A65",
"s. c #6E726C",
"d. c #697165",
"f. c #77776A",
"g. c #6D767C",
"h. c #677277",
"j. c #777A77",
"k. c #8F623E",
"l. c #817E4A",
"z. c #967649",
"x. c #73813E",
"c. c #5A8343",
"v. c #658243",
"b. c #6A8446",
"n. c #6A8947",
"m. c #728D4A",
"M. c #7C8A4D",
"N. c #6D984C",
"B. c #689349",
"V. c #7B934E",
"C. c #749E4E",
"Z. c #7D9550",
"A. c #79A751",
"S. c #88814F",
"D. c #878457",
"F. c #8D8A53",
"G. c #888858",
"H. c #938D55",
"J. c #988F59",
"K. c #829551",
"L. c #869853",
"P. c #979E59",
"I. c #999759",
"U. c #A39E5E",
"Y. c #AB9B5C",
"T. c #9AA45C",
"R. c #9EA95F",
"E. c #94A359",
"W. c #A7A35F",
"Q. c #B7A55A",
"!. c #85887C",
"~. c #989264",
"^. c #A19E7A",
"/. c #A5AC61",
"(. c #ACAC64",
"). c #A9A467",
"_. c #B4AD65",
"`. c #B1AA68",
"'. c #ADB165",
"]. c #B3B166",
"[. c #B7BA69",
"{. c #BCBA6C",
"}. c #B9B56A",
"|. c #B7AD72",
" X c #B5AF74",
".X c #C2BD6E",
"XX c #CBB867",
"oX c #C3BA71",
"OX c #C4C06F",
"+X c #C7C272",
"@X c #CBC573",
"#X c #CFC875",
"$X c #C8C37C",
"%X c #D1C976",
"&X c #D6CB7C",
"*X c #6E7C82",
"=X c #7D8284",
"-X c #858987",
";X c #8D9381",
":X c #B9B182",
">X c #CCC286",
",X c #D5CC8A",
"<X c #E4D38A",
"1X c #E0D49C",
"2X c #EFE19E",
"3X c #F1E19C",
"4X c #DCD6AE",
"5X c #F0E4A6",
"6X c #F5E9B3",
"7X c #EAE5C5",
/* pixels */
"                                                                      ",
"                            L ] ] ] { O.                              ",
"                    i ] } } } | } } } O.c.N.B.                        ",
"              3., 6 Z } | } } |  .} } } } O.c.A.v.                    ",
"            j 6 i 6 Z } } } } ] ..9.} } } } } 9.A.C.                  ",
"          j 6 i i 6 D } } } } } L | | } } } } } } N.C.                ",
"        6.6 i i i 6 Z | } } } } { ^ | } } } } } } } N.B.0.            ",
"        , i i i i 6 Z } } } } } } } } } } } } } } } | N.O.            ",
"      ~ 6 i i i i 6 V } } } | } } } } } } } } } } } } O.B./           ",
"      3 i i i i i i Z } } } } | } } { { ] { { { } } } } 9.|           ",
"    s.6 i i i i i i Z } } { ] G D Z C B B p p V Z D L ] } O.2.        ",
"    <.i i i i i i i i P D V 8 6 1 > : % % % : : % ; > 6 Z L P         ",
"    h 8 8 i i i i i i i 6 > > 9 S 2 . $ $ . Q [ + + + + % % 3 ~       ",
"    u i i i i i i i 3 ; O . U n.m.9.7 $ = & +.m.U $ $ 3 > . X O e     ",
"    y i i i i i 6 % + + $ & +.m.m.m.b.Q i 3 e.V.e.7 w C : u 4 : , w   ",
"    6 i i i 6 ; . o : 7 = u n.m.m.Z.Z.m.M.W.{.{.K.Q = Q #.P.C p p , a.",
"    u i i 1 # q h $ r [ : A m.L.(..X{./.T.OX#X#XR.w.7 L.@X@XU u y a.  ",
"    s i > = e t -.= u b.S #.[.@X].D.D.H.`.#X#X#X[.K.F.+X%X$XS e s.    ",
"    s > S K a : h u 3 m.T..X%X_.t.|.1X4X;XXX%X%X@X[.#X@X&X Xh         ",
"  -X% p b./ K t e ..C K.@X#X+Xt.|.3X2X6X7X).@X%X#X#XU.H.{.).          ",
"  e : U +.X.K % % w.w.T.%X%X_.$.<X3X6X,X4X>X+X%X%X`.J.>X).G.          ",
"j.@ , [ +.e.W # < w.m.'.%X%XI.! Q.<X5Xt.:X,X@X#X%XJ.oX5X|.f.          ",
"a.e e 8 +.X.V ; , X.m./..X#XW.' ! %.Y._.`.U.%X%X@Xl.<X:X~.            ",
"    -X3.h e X.p < W m.E.F..X.Xo.] o.[ ' Q I.%X%X.X%.XX).q.            ",
"            8.F < i b.T.H.I.%X].#.A D ^ F.@X#X#XoX&.e.$.d.            ",
"              A < q  .L.'.t.[.#X.X(.P.'.@X#X{.T.OXS.| A               ",
"                * # u b.R.W.OX#X#X%X#X#X#X+X].[.@X.X/.G.              ",
"                  a O V m.R.OX#X#X#X#X#XY.) c k.#X#X&X).              ",
"                  s.+ # A n.K./.{.@X%X#Xk.v ) k.oX#X<XG.7.s.-X-X4.*X  ",
"                f.: ; - O C +.b.V.P./.[.).].+XoX+X+X).1.u.4.k g ,.h.  ",
"              1.0 n 2 5 > - % p 2.X.w.b.m.K.K.M.e.( K y.u.7.-.4.:.-X  ",
"            / M I 9 Y E 1 9 > ~       f.r.S d r t 4.g.*Xh.y.>.h.>.    ",
"            I 9 > 0 m 2 > 9 5 a           <.`     j.g.a.4.*.u.p.      ",
"          d.N n > - n 5 5 5 > p         a.)         6.=.g 4.*Xi.      ",
"          5.n 8 2 > ! I n E 9 U         x f.          f ;.i.p.        ",
"          3.M 0 : - I I b N 0 5 l.    1.`               ,.i.          ",
"            H F.I.( ; 8 0 5 8 > U ;Xa.l               ,.              ",
"            ;X`.&X`.n I E 9 b b W [ q.t.                              ",
"              K.@X[.( 6 / S > M M 7 o.!.                              ",
"              e.M.#.A r.    3.1 8 C q.                                ",
"                -X3 9 9.      5 S J                                   ",
"                !.n S /     d.0 E /                                   ",
"                3 m b 8.    a.> 0 q.                                  ",
"                - 1 n         O a                                     ",
"              a.. r s.        &                                       ",
"              w * 6.        z = t                                     ",
"            <.$ w t <.      & & w                                     ",
"            <.& w w w                                                 ",
"                                                                      "
};
