/* XPM */
static char *a4e9e7377f1d496af9e2b05c9e52af6atcKILbDKh5v3wMxK[] = {
/* columns rows colors chars-per-pixel */
"35 49 210 2 ",
"   c None",
".  c #0C0D0B",
"X  c #060C07",
"o  c #0E120D",
"O  c #0E180E",
"+  c #10140E",
"@  c #10180F",
"#  c #0E1B10",
"$  c #141413",
"%  c #141D12",
"&  c #181A16",
"*  c #1C1D1B",
"=  c #161A1A",
"-  c #10220E",
";  c #152213",
":  c #1B2515",
">  c #1C2A15",
",  c #1D2B1B",
"<  c #172619",
"1  c #1F3316",
"2  c #212E14",
"3  c #222C1C",
"4  c #202717",
"5  c #233216",
"6  c #23341D",
"7  c #2A341E",
"8  c #25391D",
"9  c #2C3C1B",
"0  c #323E1B",
"q  c #1F2422",
"w  c #222322",
"e  c #242A23",
"r  c #282E21",
"t  c #2A2D2C",
"y  c #253122",
"u  c #2A3323",
"i  c #263920",
"p  c #2A3A23",
"a  c #2C342C",
"s  c #323A2F",
"d  c #373A20",
"f  c #202D30",
"g  c #28373B",
"h  c #353935",
"j  c #383E36",
"k  c #303C3F",
"l  c #513F29",
"z  c #403F3E",
"x  c #493A22",
"c  c #6F2E22",
"v  c #763527",
"b  c #2D431D",
"n  c #32421C",
"m  c #3C461D",
"M  c #36481E",
"N  c #3D4D1E",
"B  c #2C4325",
"V  c #2E4628",
"C  c #344425",
"Z  c #324B29",
"A  c #3B4B2B",
"S  c #3A4627",
"D  c #36522C",
"F  c #3E522C",
"G  c #3C592F",
"H  c #3F4734",
"J  c #3D4D32",
"K  c #3D453B",
"L  c #3E5C32",
"P  c #3A5730",
"I  c #46511F",
"U  c #434C2C",
"Y  c #404D20",
"T  c #59482B",
"R  c #445121",
"E  c #4C5522",
"W  c #43542D",
"Q  c #47592F",
"!  c #5A5E2A",
"~  c #41493E",
"^  c #465B32",
"/  c #48563A",
"(  c #575838",
")  c #7A442D",
"_  c #7E4C31",
"`  c #64543C",
"'  c #4B622F",
"]  c #436336",
"[  c #4F6434",
"{  c #466739",
"}  c #476B3A",
"|  c #496C3A",
" . c #4D6B39",
".. c #52633C",
"X. c #546939",
"o. c #576837",
"O. c #4D733C",
"+. c #5C733D",
"@. c #537A3F",
"#. c #646E3E",
"$. c #6A6439",
"%. c #78733E",
"&. c #68783E",
"*. c #303C40",
"=. c #2D3E43",
"-. c #3C4244",
";. c #334043",
":. c #3B515B",
">. c #384C56",
",. c #3E5A65",
"<. c #484A49",
"1. c #4C5543",
"2. c #4F5D4B",
"3. c #52594D",
"4. c #485358",
"5. c #555C51",
"6. c #535756",
"7. c #474E51",
"8. c #566248",
"9. c #517040",
"0. c #5C6759",
"q. c #666548",
"w. c #617A41",
"e. c #677845",
"r. c #696A5A",
"t. c #77724C",
"y. c #545E66",
"u. c #5B676C",
"i. c #4B6976",
"p. c #536C76",
"a. c #686A65",
"s. c #6E726C",
"d. c #697165",
"f. c #77776A",
"g. c #6D767C",
"h. c #677277",
"j. c #777A77",
"k. c #8F623E",
"l. c #817E4A",
"z. c #967649",
"x. c #73813E",
"c. c #5A8343",
"v. c #658243",
"b. c #6A8446",
"n. c #6A8947",
"m. c #728D4A",
"M. c #7C8A4D",
"N. c #6D984C",
"B. c #689349",
"V. c #7B934E",
"C. c #749E4E",
"Z. c #7D9550",
"A. c #79A751",
"S. c #88814F",
"D. c #878457",
"F. c #8D8A53",
"G. c #888858",
"H. c #938D55",
"J. c #988F59",
"K. c #829551",
"L. c #869853",
"P. c #979E59",
"I. c #999759",
"U. c #A39E5E",
"Y. c #AB9B5C",
"T. c #9AA45C",
"R. c #9EA95F",
"E. c #94A359",
"W. c #A7A35F",
"Q. c #B7A55A",
"!. c #85887C",
"~. c #989264",
"^. c #A19E7A",
"/. c #A5AC61",
"(. c #ACAC64",
"). c #A9A467",
"_. c #B4AD65",
"`. c #B1AA68",
"'. c #ADB165",
"]. c #B3B166",
"[. c #B7BA69",
"{. c #BCBA6C",
"}. c #B9B56A",
"|. c #B7AD72",
" X c #B5AF74",
".X c #C2BD6E",
"XX c #CBB867",
"oX c #C3BA71",
"OX c #C4C06F",
"+X c #C7C272",
"@X c #CBC573",
"#X c #CFC875",
"$X c #C8C37C",
"%X c #D1C976",
"&X c #D6CB7C",
"*X c #6E7C82",
"=X c #7D8284",
"-X c #858987",
";X c #8D9381",
":X c #B9B182",
">X c #CCC286",
",X c #D5CC8A",
"<X c #E4D38A",
"1X c #E0D49C",
"2X c #EFE19E",
"3X c #F1E19C",
"4X c #DCD6AE",
"5X c #F0E4A6",
"6X c #F5E9B3",
"7X c #EAE5C5",
/* pixels */
"                                                                      ",
"                              O.} ] ] ] L                             ",
"                        B.N.c.O.} | } } } } } ] y                     ",
"                    v.A.c.O.} } } | | } } } } } Z i , 5.              ",
"                  C.A.O.} } } } } 9.9.^ { } } } V 6 i 6 j             ",
"                C.N.} } } } } } |  .P } } } } } D 6 i i 6 j           ",
"            0.B.N.} } } } } } } | ^ } } } } } } D 6 i i 8 6 5.        ",
"             .N.| } } } } } | | | { } } } } } 9.V 6 i i i i ,         ",
"          / B.O.} | } } } } } | } } } } | } } | V 6 y 8 i i i ~       ",
"           .9.| | } } } ] ] ] ] } } } } } } } } Z i i i i i i ,       ",
"        2.O.} ] L D Z B B B p B V Z D P ] { } } V i i i i i i 6 s.    ",
"        D L C 7 > ; # < : % % % ; , 1 6 i V D P B 8 i i i i i 8 <.    ",
"      ~ 3 ; % + o + $ [ Q o $ $ . : S 9 > > 6 i i i i i i i i i h     ",
"    e o X . 4 3 $ $ A m.+.& & $ 7 w.m.m.A . + ; 6 i i i i i i i u     ",
"  w < : 3 7 : C w y v.V.e.3 y Q b.m.m.m.&.% $ + o % 6 6 i i i i 6     ",
"s., p p C P.#.W * ^ K.{.{.W.M.m.Z.V.m.n.b.y * 7 : o o ; 6 i i i y     ",
"  a.6 p U @X@XL.u w.R.#X%X{.T.)..XoX'.L.m.F : ..6 $ h q # , 8 i u     ",
"    s.e j $X%XXXF.K.[.#X#X@X`.H.D.l.].#X].&.S b.u = j t t = > 8 s     ",
"        s oX%X@X%X[.+X#X%X].^.4X1X|.t.(.%X{.T.m.3 u h * a K S , s     ",
"          ).oXH.W.#X#X#X@X X7X7X3X3XoXt.@X#X@XK.C ..e a ~ / v.9 @ -X  ",
"          !.`.>XJ.`.%X#X+X>X4X,X2X2X<X$._.%X#XT.w.e.; # K ..+.W ; e   ",
"          l.|.5X>XF.#X#X#X,X:Xl.5X<XQ.! I.%X#X'.V.9., # W v.+.[ , % j.",
"            ~. X<Xl.+X#X#XY.`.`.Y.%.o.' W.#X.XW.m.X.q ; C X.+.7 , e a.",
"            q.).XX%..X%X#XU.W ^ [ X.Q o.OX.XF.P.m.F < p X.3 s 6.-X    ",
"            s.o.%.&.OX#X#X@XK.W F A o.].#XH.H.T.b.p < A 8.            ",
"              A  .M.OXR.{.#X#X'.T.(..X%X}.S.'.L.O.q ; J               ",
"              G./..X+X[.].+X#X%X#X%X#X#XOX(.T.v.9 # *                 ",
"              ).&X#X@Xz.c ) Y.#X#X#X#X#XOXT.m.C O a                   ",
"  *X4.*X-Xg.7.G.,X#X.X_ _ v k.#X#X@X{./.K.n.S O O s.                  ",
"  h.,.g =.6.y.3.).+X+XXX+X_.W.[./.P.V.n.+.C - - ; : j.                ",
"  -X4.4.*.7.y.y.z ( e.K.K.K.V.b.&.....p % % > 5 > b n 1.              ",
"    >.h.4.y.g.*Xg.4.t r d S 0.f.      <.> 9 5 I m 0 I C /             ",
"      p.u.=.4.u.g.j.    ` T           h 2 9 : 2 m 0 ; 0 R             ",
"      i.*X4.g *.6.        T r.        a > 8 5 2 n - > n Y d.          ",
"        p.p.=.f           l.x         U 9 I m I ! 2 2 b n 5.          ",
"          i.,.              ` (     j.5 n N b R I - ; 0 n 3.          ",
"              ,.              z d.!.W > 5 1 0 8 ; ( I.D.A             ",
"                              f.#.( W n M 9 E R b ].&X'.;X            ",
"                              !...7 M C > Z / 6 ! {.@XF.              ",
"                                q.M 8 > 5.    r.U +.M.e.              ",
"                                  J S 5       8.9 3 -X                ",
"                                  1.E b d.    / N n !.                ",
"                                  q.0 > d.    8.n m 7                 ",
"                                    u +         n 1 &                 ",
"                                      &         d.r o a.              ",
"                                    t * z         6.* w               ",
"                                    * * *       <.t w $ <.            ",
"                                                w w * & <.            ",
"                                                                      "
};
