/* XPM */
static char *door1675603509[] = {
/* columns rows colors chars-per-pixel */
"50 50 114 2 ",
"   c None",
".  c #040100",
"X  c #0C0301",
"o  c #0C0A05",
"O  c #120502",
"+  c #180500",
"@  c #130B06",
"#  c #1B0C06",
"$  c #140D0A",
"%  c #1B0D0B",
"&  c #171105",
"*  c #16110C",
"=  c #1B120C",
"-  c #1C1412",
";  c #1D1914",
":  c #1F1E1A",
">  c #220F0B",
",  c #22130D",
"<  c #28140D",
"1  c #25180F",
"2  c #230F10",
"3  c #231512",
"4  c #2B1613",
"5  c #241B14",
"6  c #2B1B15",
"7  c #241C19",
"8  c #2C1E1A",
"9  c #301317",
"0  c #321B16",
"q  c #341D1B",
"w  c #3A1D1B",
"e  c #252116",
"r  c #292116",
"t  c #26221C",
"y  c #2C231B",
"u  c #2D291E",
"i  c #33231D",
"p  c #3A221D",
"a  c #31281F",
"s  c #3A1E21",
"d  c #262421",
"f  c #2E2421",
"g  c #2E2C24",
"h  c #2F2E2A",
"j  c #342521",
"k  c #3C2522",
"l  c #352B24",
"z  c #3B2A25",
"x  c #3A2729",
"c  c #342C29",
"v  c #3C2C2A",
"b  c #333125",
"n  c #393026",
"m  c #35302C",
"M  c #3C322B",
"N  c #3C382D",
"B  c #373632",
"V  c #3D3331",
"C  c #3D3934",
"Z  c #43211F",
"A  c #422423",
"S  c #492523",
"D  c #432A26",
"F  c #492A26",
"G  c #45262A",
"H  c #432C2A",
"J  c #4B2D2B",
"K  c #522D2C",
"L  c #582E2F",
"P  c #43332C",
"I  c #4C322D",
"U  c #42392E",
"Y  c #53322F",
"T  c #422F31",
"R  c #433631",
"E  c #4D3432",
"W  c #443B33",
"Q  c #4B3C35",
"!  c #453E39",
"~  c #4B3E39",
"^  c #523532",
"/  c #5A3232",
"(  c #543935",
")  c #563538",
"_  c #5A373B",
"`  c #4B4037",
"'  c #46423B",
"]  c #4D423B",
"[  c #4F493D",
"{  c #52423C",
"}  c #524A3F",
"|  c #4E4442",
" . c #4B4A46",
".. c #534541",
"X. c #554B44",
"o. c #5A4C44",
"O. c #554E4A",
"+. c #5A4F49",
"@. c #52514D",
"#. c #595049",
"$. c #64564D",
"%. c #655E54",
"&. c #685F56",
"*. c #63625E",
"=. c #6E615B",
"-. c #6F6E6A",
";. c #756661",
":. c #756D6A",
">. c #796E6C",
",. c #7A706E",
"<. c #806D6E",
"1. c #857374",
"2. c #887676",
"3. c #887878",
/* pixels */
"                                                                                                    ",
"                                            U m r a n N                                             ",
"                                        W c r U M M Q c m C                                         ",
"                                    m d [ o.l P l y M n ! O.C '                                     ",
"                                7 c O.' y ~ n a n y c 8 c ! V X.{ o                                 ",
"                              c  .c c ] 8 M i 5 a i c y c N c ~ r } %.` g                           ",
"                            f $ ! f 3 Q y , = % # # + O = 5 u v u ` [ e W                           ",
"                        ; c V 7 3 v 8 3 % # 1 X O = @ + O X # 5 N N & ` =.'                         ",
"                        * 7 c | 6 , # , 4 , % , , 1 4 # > X X O 5 # n X.] n V                       ",
"                      c V 5 % V z 0 , 1 4 i H Q z P W x k > + X X y n y N =.#.                      ",
"                    . 7 R ' j , < 0 q 0 j H ~ { P W ( ~ { k < + X X 1 i ` [ Q C                     ",
"                    t c 5 m v # + i H D v P E T k v W I { I D p X X = y n n [ ]                     ",
"                  . C ! u y y 6 0 D E D j v H H z v P D ( I E E 8 % % % c P o.]                     ",
"                  . * f V v 4 i Z Y ^ D k D H v D v H p E J I E ~ - X - z a n { M                   ",
"                  m g f c u , k Z Y E F k D x j x x z p ^ I I I R l 3 O 1 P i P P                   ",
"                d * N M ..] k z Q ^ I p p D H x H z p p { ^ Y F | c = O r ] y Q U                   ",
"                * ; 3 y a y i D I ^ J p w x H v v H k k J E G G ~ V 2 $ % - e r 1                   ",
"                ; c R W Q U p k Y ( E k q x v v v v x v E E G G v x - $ t V ` ] }                   ",
"                o y c l p l a p G E J s 8 q j c j x j k T G Z x E x - $ 5 g l a P y                 ",
"                . ; u y a p p p k v v s 8 y j g 7 f j x v k s s x 8 $ . & 5 e r < i                 ",
"                - g R ] } Q D D k v v l z m n l a c c l c j p v T V f - e b U ` M a                 ",
"                - u M ~ { P i i j k k z v N v c M R U M v z z P V T 8 % & 1 1 r Q <                 ",
"                X 7 c M P z i < 6 6 8 8 y i i u l m c l z j j v x v y = e g n n a 1                 ",
"                o M O.+.o.{ z i , 4 3 , , 1 5 5 , 6 6 4 6 8 6 q 8 f - & e b N U P a                 ",
"                . 7 f v P l z p D D D 0 q P H z i i z I H D H E v T 7 $ $ 7 e r i 5                 ",
"              -.@ f c N U p z p G H J q q H D k k k H E E J T E x c 3 - * c n M a i                 ",
"              B t C W W U c D k J J J w w D A p Z A I ( ^ F G J x x = % ; N N ` { Q                 ",
"              h X 7 8 y i q i p I J K w w G A A Z A J ^ ^ G Z D v v % o O e 5 r 6 y X.              ",
"               .* g u l p i p p J I ^ w w A A F A A J ( ) J w p x x % o & u a n n a =.              ",
"              h c ! R V M a n z H J ^ w w A A F A A J ( ^ D w q f x - - = N U ` $.I                 ",
"              ; o 5 5 y i 6 k D D H I w 0 p k I p p D ( ( D 0 4 s c ; & & e r a n 1 =.              ",
"              @.* f j a i i k D P H E p 0 p p I k Z D ( ( H w 0 3 8 3 = = a n Q ` l                 ",
"              C * d f v z k D x F I U a 0 p D U Z p F I I F Z I D F 1 > = c M Q ] P                 ",
"              C . - 5 6 6 8 k k F Y ( Z a D I ` Z Z F Y Y F p U U U r & @ 5 7 u i i                 ",
"              g * 8 f v z i k w F / ( D p D I Y S S Y / Y K Z F P I r < % j c R ` `                 ",
"              : - d l v H k D w F / Y D p Z I Y F S L / Y I Z F D D 4 , - c R ] $.{                 ",
"              d o - 5 8 i q z x I Y I p i p I Y Z S K Y Y F w Z I U 3 + X 7 7 8 z i                 ",
"              ; 7 c c ! R k k q F F p a r a p z Z 0 D F F D p p D P 3 O @ 8 y x n P                 ",
"              o c V W ..{ v i 6 p n u u r u u y r 0 p p a n r a r z 5 = % c V ! } }                 ",
"              . $ - = 6 8 4 i k a a u u g b g u i r i i a n u a r z y - o ; - f z D                 ",
"              ; * 7 8 y i i 8 4 3 5 5 e y t t 5 j i j s j i a c j x 8 o @ d M M U P                 ",
"              o : g V c j 8 4 > 4 4 3 = = 5 5 3 4 4 9 q q 6 5 7 3 5 - - : g V c ` `                 ",
"              . $ 7 8 5 5 i k j k x s 4 1 4 8 s q q s A G k q 4 c i 7 o . $ : 7 c i                 ",
"              ; 7 d t f c v z k ) ) T k q q x G G G K ) _ E A s j c f - - d c c a i                 ",
"            -.o c c V ] Q z i z s s 8 3 % % 2 4 9 9 w Z G s 4 % 5 8 - X $ c C V ]                   ",
"            *.. o o @ - 5 8 { ;.2.3.1.,.:.:.>.>.>.<.1.                                              ",
"                                                                                                    ",
"                                                                                                    ",
"                                                                                                    ",
"                                                                                                    "
};
