/* XPM */
static char *bd517b5e775a4f29a1f1662811aafb8foA76eTFCGRkMczAI[] = {
/* columns rows colors chars-per-pixel */
"37 50 204 2 ",
"   c None",
".  c #0F2700",
"X  c #3C4E28",
"o  c #4C5E36",
"O  c #556C3B",
"+  c #5E7A3B",
"@  c #567337",
"#  c #637B3D",
"$  c #7F3542",
"%  c #4D5A43",
"&  c #586F41",
"*  c #73734F",
"=  c #616F56",
"-  c #716C59",
";  c #687D56",
":  c #7F7F5E",
">  c #767757",
",  c #A0293F",
"<  c #9F3E51",
"1  c #883348",
"2  c #AD2F47",
"3  c #A7374E",
"4  c #AC3F54",
"5  c #B73A52",
"6  c #8E4558",
"7  c #AB405A",
"8  c #B94259",
"9  c #894B62",
"0  c #BF4F67",
"q  c #AD5063",
"w  c #B75969",
"e  c #AA4763",
"r  c #906E62",
"t  c #837A64",
"y  c #927D7A",
"u  c #A17D6F",
"i  c #B46C79",
"p  c #AB7B73",
"a  c #BA7A77",
"s  c #BC7C7B",
"d  c #A8676E",
"f  c #C15169",
"g  c #CA5E74",
"h  c #C16A7D",
"j  c #6C8335",
"k  c #6B8848",
"l  c #6C8A5A",
"z  c #688259",
"x  c #758A57",
"c  c #78965B",
"v  c #759456",
"b  c #7C9463",
"n  c #7B9B64",
"m  c #7E9569",
"M  c #7E8C74",
"N  c #7D8570",
"B  c #80984C",
"V  c #849C5D",
"C  c #8CA355",
"Z  c #8CA35D",
"A  c #8AA65F",
"S  c #94A75C",
"D  c #93A85B",
"F  c #838362",
"G  c #858468",
"H  c #819C66",
"J  c #82976E",
"K  c #909C6A",
"L  c #8C8473",
"P  c #858E73",
"I  c #849573",
"U  c #8C9174",
"Y  c #86997A",
"T  c #909B70",
"R  c #85A366",
"E  c #8CA362",
"W  c #8DA76A",
"Q  c #83A16F",
"!  c #92AA63",
"~  c #95AC6C",
"^  c #99AB6D",
"/  c #9EB569",
"(  c #8AA079",
")  c #9AA975",
"_  c #9CB474",
"`  c #ADBD7A",
"'  c #A5B777",
"]  c #A2B76A",
"[  c #C5847E",
"{  c #C77F8B",
"}  c #DA778A",
"|  c #C97E9B",
" . c #D36B8F",
".. c #EB708F",
"X. c #E17B93",
"o. c #EB7D94",
"O. c #CA7AA1",
"+. c #8F8083",
"@. c #889783",
"#. c #929B89",
"$. c #929888",
"%. c #979F92",
"&. c #BE8689",
"*. c #BE8490",
"=. c #A39998",
"-. c #8FA581",
";. c #9AA488",
":. c #92A296",
">. c #A1A78D",
",. c #A6AA8D",
"<. c #AAB98B",
"1. c #A8B58B",
"2. c #A2AC9D",
"3. c #A8A699",
"4. c #AC8FAB",
"5. c #AE97A9",
"6. c #A5AAA7",
"7. c #AAADB2",
"8. c #ADB4B4",
"9. c #ADB9B9",
"0. c #BBBFBA",
"q. c #B7BEB6",
"w. c #ACB4A9",
"e. c #C98789",
"r. c #DA848E",
"t. c #C78499",
"y. c #DB8491",
"u. c #DD839D",
"i. c #DC8B93",
"p. c #D8959A",
"a. c #E48491",
"s. c #EB8194",
"d. c #EC8C9D",
"f. c #E98899",
"g. c #F18295",
"h. c #F38B9C",
"j. c #FA8C9D",
"k. c #E5929C",
"l. c #F3919E",
"z. c #D588A1",
"x. c #DD93AC",
"c. c #D898AA",
"v. c #CE96AB",
"b. c #E38BA3",
"n. c #EB8AA3",
"m. c #E28EA8",
"M. c #FC8CA5",
"N. c #FD8DA9",
"B. c #F38DA3",
"V. c #E593A2",
"C. c #EC92A3",
"Z. c #ED9AA5",
"A. c #E693A9",
"S. c #ED93AA",
"D. c #E99CA8",
"F. c #F394A3",
"G. c #FA94A4",
"H. c #F294AB",
"J. c #FC95AB",
"K. c #F59BAB",
"L. c #FC9AAC",
"P. c #F89AA6",
"I. c #EB98B6",
"U. c #FF97B3",
"Y. c #FD9EB4",
"T. c #F79BB4",
"R. c #CEA2AF",
"E. c #C3AAB0",
"W. c #DBA3BA",
"Q. c #DCA8B8",
"!. c #C8BDBA",
"~. c #F8A0AC",
"^. c #FDA2B4",
"/. c #FDA2B9",
"(. c #A9C282",
"). c #BDD18A",
"_. c #BEC0BF",
"`. c #C5DB92",
"'. c #CAC7BE",
"]. c #CBE8A5",
"[. c #B8B8C5",
"{. c #BFBBD1",
"}. c #DDADC5",
"|. c #C1BFCB",
" X c #CDB8C9",
".X c #D8B8CF",
"XX c #D2BECA",
"oX c #CFB6D4",
"OX c #D7B8D4",
"+X c #E2BBCD",
"@X c #ECABD3",
"#X c #BEC2C4",
"$X c #BEC1C9",
"%X c #BEC1D4",
"&X c #C2C5CB",
"*X c #CACBCF",
"=X c #C4C6C6",
"-X c #C8D2CA",
";X c #C8C7D7",
":X c #DBC3DB",
">X c #D4D2D9",
",X c #CBD5D4",
"<X c #CED5E5",
"1X c #D7E5E8",
/* pixels */
"                                                                          ",
"                                                                          ",
"                                                                          ",
"                                                                          ",
"                                                                          ",
"                                                                          ",
"                                                                          ",
"                                                                          ",
"                                                                          ",
"                                                                          ",
"                                                                          ",
"                                                                          ",
"                                  $ d i                                   ",
"                                 .w < q 1                                 ",
"                              9 3 5 2 4 7 e                               ",
"                              6 3 5 2 4 o.Y.H.H.                          ",
"                            D.w 7 3 f } U.F.L.J.Y.n.m.                    ",
"                          p.~.h.g f g } L.P.J.G.M.s.X.X.                  ",
"                      A.b.K.h.j.g.g.g.f.d.a.s.s.j.j.h.n.x.                ",
"                    x.I.Y.^.j.f.o.M.Y.U.C.f.d.h.h.j.G.K.x.W.              ",
"                    I.S.B.n.L.F.f.l.Z.K.K.^.K.d.h.h.a.r.{ *.R.            ",
"                  z.b.b.n.d.L.a.d.l.C.C.V.K.H.F.l.l.a.i.e.{ v.            ",
"                W.m.n.M.^.^.S.i.r.l.C.S.u.S.K./.~.~.l.l.Z.p.p.Q.          ",
"              +Xz.Y.N.N.J.J.y.k.P.^.K.^.A.T.H.K.G.P.l.l.~.Z.c.R.:X        ",
"              W.I.U...o.U.N.y.Z.d.^.K.S.Y.T.H.L.L.G.~.l.P.C.A.c. X        ",
"            .XW.z.U.N.N.J.L.i.i.~.C.^.^.H.S.T.F.F.h.F.h.L.n.z.| oX        ",
"            .X}.t.x.n.T.K.p.s e.k.P.Z.f./.L.F.F.P.G.j.X.X. . .O.OX        ",
"              .XR.t.*.e.&.p r u p e.a d p.e.s a [ [ s i | O.I.@XoX        ",
"                XX XE.y t L G F x > t t N x F * F : - P !.XX:X:X          ",
"                  <X>X$.L Y I J l l n Q n l n n n n z M -X$X;X            ",
"                    ,X:.M M z & & R c c v (._ R v n l @.#X[.              ",
"                    1X:.@.-.& . + R ! v j ].].k v n l ( ,X$X              ",
"                    <X9.@.( v + v V Z ! + @ + k R m M 2.=X|.              ",
"                    {.8.@.Y V ! V ^ ^ V S V V R m ; = 6.*X;X              ",
"                    ;X0.;.;.A C S ).`./ ' D A W l o o w.*X                ",
"                    >X'.-._ ! C ] ` S j B D ~ _ O X % _.&X                ",
"                    *X'.,.) S / S S C S Z _ ' ^ c z M *X&X                ",
"                     X!.,.<.] ' <.` ` ` ! ) ' <.1.>.%.[.|.                ",
"                  4.5.+.- U T K T ) ) ' <.<.) Y $.$.@.7.[.                ",
"                        =.=.>.,.U >.;.P ;.$.#.2.6.w.7.[.{.                ",
"                                      =X0.[.=X&X&X[.{.|.                  ",
"                                                                          ",
"                                                                          ",
"                                                                          ",
"                                                                          ",
"                                                                          ",
"                                                                          ",
"                                                                          ",
"                                                                          ",
"                                                                          "
};
