/* XPM */
static char *b22837f1f5ef4478a347e3db51e368a3JU8XygHfhMyWi7L6[] = {
/* columns rows colors chars-per-pixel */
"47 50 2 1 ",
"  c None",
". c #FFCC00",
/* pixels */
"                       ....                    ",
"                  ..............               ",
"               ...................             ",
"             .......................           ",
"           ...........................         ",
"          .............................        ",
"         ................................      ",
"        ..................................     ",
"       ....................................    ",
"      ......................................   ",
"     .......................................   ",
"    .........................................  ",
"    .......................................... ",
"   ........................................... ",
"   ........................................... ",
"  ..........................................   ",
"  ........................................     ",
" .......................................       ",
" .....................................         ",
" ...................................           ",
" .................................             ",
" ...............................               ",
"..............................                 ",
"............................                   ",
"..........................                     ",
"..........................                     ",
"...........................                    ",
".............................                  ",
"...............................                ",
" ................................              ",
" ..................................            ",
" ....................................          ",
" ......................................        ",
"  .......................................      ",
"  .........................................    ",
"   ..........................................  ",
"   ........................................... ",
"    .......................................... ",
"    .........................................  ",
"     .......................................   ",
"      ......................................   ",
"       ....................................    ",
"       ...................................     ",
"         ................................      ",
"          ..............................       ",
"           ...........................         ",
"             ........................          ",
"               ....................            ",
"                 ...............               ",
"                     .......                   "
};
