/* XPM */
static char *ec33b9b2ea424da0a7cc9dc7efdf9e11iW6dMGS4NjDXWcSi[] = {
/* columns rows colors chars-per-pixel */
"50 50 140 2 ",
"   c #232F2B",
".  c #25322F",
"X  c #273331",
"o  c #2A3633",
"O  c #2C3936",
"+  c #2F3B39",
"@  c #323E3B",
"#  c #2F403A",
"$  c #35413D",
"%  c #364441",
"&  c #394542",
"*  c #3D4A46",
"=  c #3E4B49",
"-  c #424D4A",
";  c #45524E",
":  c #48534F",
">  c #465351",
",  c #4A5653",
"<  c #475852",
"1  c #4D5A55",
"2  c #4E5C59",
"3  c #525A57",
"4  c #525D5A",
"5  c #585E5C",
"6  c #4F605A",
"7  c #54625D",
"8  c #58635F",
"9  c #566461",
"0  c #5A6562",
"q  c #576862",
"w  c #5C6A65",
"e  c #5E6D68",
"r  c #5F706A",
"t  c #616E6A",
"y  c #60736D",
"u  c #61726C",
"i  c #62736D",
"p  c #62716C",
"a  c #64706C",
"s  c #65716D",
"d  c #64706E",
"f  c #65716F",
"g  c #64736E",
"h  c #66726E",
"j  c #67736F",
"k  c #63746E",
"l  c #65746F",
"z  c #64756F",
"x  c #64726D",
"c  c #68736F",
"v  c #667270",
"b  c #677371",
"n  c #657670",
"m  c #677671",
"M  c #667572",
"N  c #667571",
"B  c #687470",
"V  c #697571",
"C  c #687472",
"Z  c #697573",
"A  c #687772",
"S  c #6A7672",
"D  c #6B7773",
"F  c #6A7674",
"G  c #6B7775",
"H  c #697672",
"J  c #657872",
"K  c #677974",
"L  c #687973",
"P  c #697A74",
"I  c #687B75",
"U  c #6B7A75",
"Y  c #6A7B75",
"T  c #6A7976",
"R  c #6C7874",
"E  c #6D7975",
"W  c #6C7876",
"Q  c #6D7977",
"!  c #6C7B76",
"~  c #6E7A76",
"^  c #6F7B77",
"/  c #6D7C77",
"(  c #6C7D77",
")  c #6C7A75",
"_  c #6E7A78",
"`  c #6F7B79",
"'  c #6B7E78",
"]  c #6D7E78",
"[  c #6E7F79",
"{  c #6E7E79",
"}  c #707C78",
"|  c #717D79",
" . c #707C7A",
".. c #717D7B",
"X. c #707F7A",
"o. c #727E7A",
"O. c #737F7B",
"+. c #707F7C",
"@. c #727E7C",
"#. c #737F7D",
"$. c #717E7A",
"%. c #6F807A",
"&. c #6F827C",
"*. c #6F807B",
"=. c #71807B",
"-. c #70817B",
";. c #71827C",
":. c #70837D",
">. c #72837D",
",. c #74807C",
"<. c #75817D",
"1. c #75817F",
"2. c #76827E",
"3. c #77837F",
"4. c #71847E",
"5. c #73847E",
"6. c #74857F",
"7. c #73827D",
"8. c #758680",
"9. c #748781",
"0. c #778683",
"q. c #768581",
"w. c #788480",
"e. c #798581",
"r. c #798682",
"t. c #778A84",
"y. c #778882",
"u. c #798883",
"i. c #7C8884",
"p. c #7E8A86",
"a. c #7A8A85",
"s. c #7E8E89",
"d. c #7F908A",
"f. c #808C88",
"g. c #838F8B",
"h. c #818D89",
"j. c #83928D",
"k. c #869590",
"l. c #889490",
"z. c #8E9D98",
/* pixels */
": : : 2 w a t t t 6 : $ o $ $ # $ - - $ + o o X @ 4 9 5 d v e C w w 3 * $ 1 c R a a 0 w c s w 8 : $ ",
"R D E o.2.3.o.E V } e.w - - 3 8 8 8 7 3 2 > & o f #.F d ` Q d Q } ,.3.3.,.3.3.%.3.,.} ,.2.2.%.S ,.c ",
"D D D ^ } } E D 3.,.V 8 7 R R w t w 0 8 0 0 > & e F C C  .Z e d a w c ~ c c c w 7 8 8 w t S S 0 ,.,.",
"D D E ` } o.o.,.c c V 8 3 } ,.c Z D D t 0 2 > * 2 d C C W b d e ~ t a s a a V c a w c s t c s 8 S ~ ",
"c E ~ } E E E E ~ } <.w 6 E 2.} ....Q d w 8 2 > > d _ f d d d 0 t w s V a w t w R c s w a c R a ~ ,.",
"c ~ } o.o.} E E 2.V w * * t ,.<.W v w 9 9 5 , & X , v C d d d 0 a a R } c c c t R c w 7 w t t R 2.,.",
"3 1 ; ; : 1 4 7 7 6 3 $   $ 8 c Z d w 9 4 > & o + & 9 v e 9 0 0 7 3 6 3 1 w c a w c 3 : 7 - @ - 3 1 ",
"7 ; $ o o $ - 1 , * - - - 3 $ . 2 0 t t e 0 9 7 3 = = > & + & , : - $ $ * 8 R s w } c R f.a - 0 0 1 ",
"a 8 ; ; 8 t a h a ,.} 2.a L 8 @ C F _ b v F d e v d e d & 2 Q C 3.<.} } ,.} ~ V c 3.} D <.s s g.3.3.",
"w t 3 c } } a a t a t L 8 a a : v d b v b W W 1.v d f C > 4 ` Z t s E E c a t t E i.<.c E s w c S c ",
"w 8 * w 8 h t ( } a t t t 8 h 3 b v F W W b d b f v f W > 5 W Z c R R R V c R ~ t c E s s E } E c c ",
"h t , a E c a D c 8 w t h t ,.t d C F ..#._ _ b C C f G 2 5 W Q } V s s R R V s c h E c t c E c a a ",
",.t 7 w ,.t s t t 8 t 8 t 8 c : d W d e d v ..C v v 0 d , 4 b W } } } } ,.%.E V t 8 a } t t c t a t ",
"8 , - $ w , 8 3 3 3 6 7 3 1 6 $ X % + = > > 0 5 2 2 = > = = 2 4 : : : ; - - 3 8 : ; 8 D s w w 8 w w ",
"; : 3 6 D 8 8 , 1 : : 8 8 t a 8 b @.v ..0 + & & & = + = & & = = - * * $ - , t h w t D } h w 6 - 8 8 ",
"a ( a t D c %.L a.Y t 6.Y } ,.%.G @.F 1.0 X & 2 & = & , > > > = ; * * 6 V 2.<.D ,.2.2.,.<.<.c 8 ~ } ",
"w q 6 7 r u u q r r * %.u %.%.%.1.+.T +.< = = = < = ; 3 5 5 > - : - ; 7 } h E s E ~ } a E 2.t 8 d d ",
"r w r r e r u u z 8 $ %.%.;.4.4.0.+.+.T y y M e 2 9 2 4 5 3 , ; , ; ; 1 } L } D } ( E h } 2.w 8 e 9 ",
"q w r w r w r u %.6 $ &.6.6.6.6.+.T M d M e q 9 9 9 8 9 5 3 3 3 3 3 2 3 } } } } D D h ~ D ,.6 3 0 e ",
"r w q r u z z u %.q < %.-.;.6.6.+.+.0.+.0.q q +.9 9 5 7 3 3 5 5 w 7 7 3 ,.,.c D ~ o.} 2.} } 3 6 d e ",
"6 6 q q 8 q e e q 7 < q < 6 7 7 > q K y y > > 9 0 5 3 , 3 , , , 8 : , : } } t w 3 7 7 3 : 1 $ - > > ",
"6 q r q 6 6 q z 6.6.%.%.w e J %.' 4.y = = 9 T +.} S s a b F R G : . & - 8 8 : , , , , $ $ - ; 6 > > ",
"u z %.y c L 5.6.6.;.&.%.n s L %.y ' +.T y K d 2 0 0 5 t t c c D E ; a E O.} D E D D } , a Y 2.6.T T ",
"u q 8 q L 2.6.5.;.q r u i t e s M y y 0.e e 9 e 4 8 5 t 5 5 t c E * a E a 0 0 c w 8 h - a D ,.h 1.+.",
"8 q 6 z k ;.5.L w s u 8 8 u n t s L L %.s %.a 6 0 8 w w 7 8 c a c @ t c c s t 0 d d d = C Q 1.1.0.+.",
"q w 7 t 8 -.%.n ( } L a e e a s w t a } p E a w c t 0 0 8 t t t S & 5 F s c t t 5 0 F d 0._ _ 1.+.+.",
"6 8 t c V 3.3.} } D h h s t a ( } } o.2.h s a a 0 t c h c a t t c & 3 F s S t } b d ..0 @.Z _ 1.1.+.",
"t 8 k c h ~ V a h a a a u a a t a w w w 1 ; ; , , 1 3 7 8 8 8 8 t - - 0 5 t 0 t G b W , d W 0.0.0.0.",
": $ : , , 3 6 t t t 8 8 8 8 3 - w 3 7 7 3 1 3 3 t 6 $ & 8 E a w C 0 5 c 0 Z t 5 = & = X & > > = > = ",
"$ $ t s V V D 3.2.6.%.h D ,.D 8 c w a t c h ( c D s 6 7 ,.3.L h @.@.#.#.W 1.#.G 5 + + & = & + + = + ",
"$ $ } s t 8 3 6 8 w 8 8 8 w w 8 w 6 8 7 8 8 t 8 3 a w e %.E t P Z G _ G  . .1.#.Q & X & % + + = = % ",
"$ : 2.6 : 1 : : 3 , , 1 , 1 5 t 8 8 t 6 8 6 t 6 7 t 7 7 h ( L u.1...1._ 1.b 1.1.d & + = = > > > > > ",
"- 1 ;.w 6 e 6 < 7 6 ; 6 1 < u e 8 t 8 3 6 8 8 w 8 3 t 1 c t 2.i.i.3.a.a.1.+.T 0.e = = > > 3 - , > > ",
"6 1 %.a 6 8 < 6 * < 6 t e 8 n e w w w t s w 8 8 6 t t - 6 D g.3.3.-.>.-.1.0.1.1.9 & > , 3 5 2 5 9 2 ",
"6 $ t n 8 8 6 7 8 i u i w w u 6 i.c 8 6 8 8 8 t 6 a 8 - : h 3.} { 0.q._ +.1.0.#.> & > 4 0 0 5 9 9 9 ",
"- O 6 t 7 7 6 6 8 6 ; < , 6 1 * $ @ @ - : 1 : $ : : - - $ : : : < 2 9 < = % > > = = > 2 4 5 4 2 2 2 ",
"6 < 8 n 8 e 8 7 O o - w %.6.6.f.h.g.l.l.j.3.a $ } ~ s 2.h c w s d M M M w & , 2 > > > 2 3 , 2 = F ` ",
"c n n n k %.%.%.%.L j.z.s.-.%.a.6.2.3.<.%.j.f.8 <.3.;.3.,.f.,.;.a.+.+.q.0.2 e 2 5 5 , 4 2 , 3 = d v ",
"e u q q k c %.6.( s a.a.( h t -.-.%.3.6.Y 3.6.8 E ,.Y %.} 3.6.-.q.+.M M 9.> w 1 0 0 2 9 5 4 5 = f v ",
"8 %.e t %.c n 6.%.n 6.2.,.6.( Y 2.%.3.3.%.6.6.u %.~ } 2.6.2.6.2.+.0.q.M +.> f 2 0 0 2 9 0 5 5 = F C ",
"h w p i x -.Y ^ ( s L 6.a.2.( %.;.;.s.6.%.6.6.q L 6.;.s.%.-.%.%.#.0.0.0.Z 9 2 9 0 0 d 5 0 2 0 = C G ",
"J z Y z ` 8.>.>.n w w n %.,.2.a.k.6.6.6.6.f.%.$ 8 L %.6.%.%.;.6.T #.0.0.b 9 2 9 9 9 4 4 0 9 0 = W  .",
"h p q $ ; ; ; < ; $ $ * ; ; 1 7 < < 6 q 8 8 6 # * 6 w r u 8 4.6.0.0. .f 2 = X X X + & & X + = + 9 9 ",
"-.-.Y * w e z R >.( %.%.%.P ( >.* < r z r r z %.%.%.J 7 < . $ $ & + + = 2 2 2 > & 2 2 5 & & 2 5 9 9 ",
"7 e ^ 1 -.^ ^ %.L h h E L a s L %.%.6.d.d.d.j.j.s.s.6.4.>.8 z z 9 2 2 9 d Q Q f Z @.G 1.d Z G f W W ",
"w r Y 7 ^ L h J >.^ %.%.( L ( %.z %.6.s.d.d.6.6.6.s.6.s.a.n z q d d d d d d d d d b d G 0 5 d 5 2 2 ",
"q 8 z w p Y ^ >.^ Y ( L h t s L q %.s.d.s.s.s.j.6.j.6.j.a.-.n 6 9 e d e 0 0 d d 5 d v v 0 > 0 d d 9 ",
"7 7 i h z P z h h n ^ %.P c L ( q &.6.6.6.s.s.s.s.j.4.s.-.2.( w 9 9 2 9 d d d 5 d 0 d d d 5 v 5 9 2 ",
"w r L ^ c 3.L S c c x w t c a -.t 7 a.a.a.s.t.s.s.t.d.>.8 w D h M d d 9 d 9 d d d d d M T d M v v d ",
"1 2 3 7 : 7 ; : - * - * - , : 8 1 * i e e e q 8 q q r 6 $ * , , = = = = = = % = > > = 2 > = > 2 9 2 "
};
